<?xml version="1.0" encoding="utf-8"?>
<!-- Generator: Adobe Illustrator 16.0.0, SVG Export Plug-In . SVG Version: 6.00 Build 0)  -->
<!DOCTYPE svg PUBLIC "-//W3C//DTD SVG 1.1//EN" "http://www.w3.org/Graphics/SVG/1.1/DTD/svg11.dtd">
<svg version="1.1" id="Layer_1" xmlns="http://www.w3.org/2000/svg" xmlns:xlink="http://www.w3.org/1999/xlink" x="0px" y="0px"
	 width="500px" height="380px" viewBox="100 0 500 380" enable-background="new 100 0 500 380" xml:space="preserve">
<g>
	<g>
		<g>
			<g>
				<defs>
					<path id="SVGID_1_" d="M179.423,312.237c0,0-9.636,11.52-8.812,13.708c0,0-13.237-8.02-11.423-10.713
						c1.812-2.691,10.466-14.732,13.946-17.907c3.478-3.174,9.656-7.947,14.447-9.729c4.789-1.78,6.875-6.995,10.405-8.967
						c3.53-1.971,9.248-6.12,11.755-7.03c2.507-0.912,7.61-1.861,10.348-3.979c0,0-1.595,6.455-8.226,9.013
						c-6.632,2.556-7.122,4.248-8.665,8.012C201.652,288.406,196.914,301.729,179.423,312.237z M195.042,311.269
						c-0.219,0.896-2.566,6.785-3.668,8.937c-1.102,2.152-0.7,7.283-3.958,11.547c-3.261,4.266-3.441,11.835-3.441,11.835
						c-0.065,1.096,14.103,9.445,19.046,4.229C208.906,341.604,195.261,310.376,195.042,311.269z M230.528,284.899
						c12.495-8.645,6.835-26.074,6.835-26.074c0.115,2.54-3.694,6.681-5.394,8.361c-1.7,1.68-19.155,16.271-20.328,17.487
						c-1.172,1.219-8.746,10.678-5.335,26.215c3.412,15.539,8.918,35.393,8.918,35.393l10.799-1.182c0,0-5.115-19.043-4.65-21.649
						c0.466-2.604,2.887-7.721,3.165-10.488C224.816,310.195,218.033,293.542,230.528,284.899z M249.132,288.453
						c-3.347-6.219-9.604-22.77-9.604-22.77s0.198,6.18,0.123,13.421c-0.075,7.239,2.902,18.309,3.46,30.483
						c0.559,12.174-10.078,36.192-10.078,36.192c28.786,6.733,28.368-5.968,29.353-9.378c0.984-3.409-3.696-28.212-3.696-28.212
						c1.78-9.432-3.743-43.472-3.743-43.472C243.635,264.916,249.132,288.453,249.132,288.453z M154.773,239.521
						c3.908-0.443,3.93,0.752,7.411,3.86c3.48,3.11,6.583,5.897,13.063,4.126c6.48-1.77,15.708-3.88,16.738-0.868
						c1.028,3.01-0.806,9.566-7.027,13.637c-6.223,4.069,6.426-0.784,13.456-1.822c7.03-1.037,14.674-4.62,14.674-4.62
						s5.469-8.606,6.252-9.102c0,0-23.964-14.629-24.264-16.188s-10.06-7.56-16.492-6.533c-6.432,1.026-30.408,4.155-30.408,4.155
						l-15.368,7.544c0,0,4.655,10.465,7.543,15.028C141.073,249.878,150.866,239.966,154.773,239.521z M161.521,267.512
						c-2.962-1.882-8.766-1.362-9.649,5.68c-0.884,7.041,5.228,6.728,5.228,6.728c14.391-0.107,27.907-9.273,27.907-9.273
						C180.959,271.902,164.483,269.395,161.521,267.512z M257.382,258.895c2.727,0.757,6.544,6.376,10.927,9.344
						c4.386,2.968,16.421,7.516,22.269,7.102c5.849-0.412,43.136-1.686,49.197-1.592c6.062,0.092,19.268-4.009,19.268-4.009
						s-33.864-1.469-37.114-1.749c-3.25-0.281-26.907-2.105-28.338-1.502c-1.431,0.604-9.948,1.546-10.82,1.191
						s-14.256-6.954-16.785-9.522c-2.529-2.566-9.291-7.062-17.807,4.62C248.178,262.777,254.654,258.14,257.382,258.895z
						 M367.46,294.834c-7.88,1.879-29.283,3.681-33.452,3.51c-4.166-0.17-27.032-4.689-30.185-5.312
						c-3.153-0.62-15.505-2.879-18.994-3.818c-3.489-0.936-15.593,0.416-27.535-18.931c0,0,6.313,19.935,12.292,24.397
						c5.979,4.465,16.255,11.694,16.255,11.694s11.494,8.402,13.013,8.003c1.516-0.399,19.389-1.434,22.652-1.124
						c3.262,0.31,15.678,0.614,17.658,0.742c1.982,0.129,25.774-2.297,29.159-2.833c3.389-0.538,18.694-6.512,23.398-8.497
						c4.705-1.985,17.535-8.119,21.475-9.058c3.941-0.94,11.784-11.475,11.784-11.475s7.909-8.664,10.282-9.892
						c2.373-1.229,22.275-26.008,22.275-26.008s-41.939,30.221-51.873,34.651C395.729,285.317,375.342,292.954,367.46,294.834z
						 M534.162,39.494c-5.449-3.241-32.43,32.231-35.562,35.239c-3.134,3.008-13.626,6.951-26.05,8.338
						c-12.426,1.387-0.655-12.975-1.964-12.662c-1.309,0.311-4.516,3.59-10.865,7.955c-6.349,4.365-14.681,21.129-14.681,21.129
						l11.325,9.746c0,0,8.693-5.661,20.913-6.963c12.221-1.299,25.929-13.347,30.999-17.894
						c5.066-4.547,17.029-21.879,18.061-24.001c1.033-2.122,5.695-7.183,5.695-7.183c-1.232,1.52,1.646,18.877,1.646,18.877
						s7.259,19.488,7.337,16.998c0.078-2.491,1.188-20.208,1.971-24.633S539.614,42.736,534.162,39.494z M491.047,72.92
						c6.26-1.977,12.582-12.115,15.518-20.58c2.934-8.464,4.396-13.456,4.396-13.456s-4.799,7.36-8.486,15.181
						c-3.688,7.82-12.035,16.317-15.196,17.812C487.277,71.877,484.787,74.895,491.047,72.92z M490.41,129.982
						c1.174-1.217,10.508-1.936,10.508-1.936s21.195,0.127,27.204-1.685c6.011-1.812,22.741-6.701,26.366-8.953l-5.918-9.463
						l-3.498-5.435c0,0-11.891,12.232-32.797,20.733c0,0-24.4,3.01-30.382-1.464l-14.149-1.557c0,0,13.324,12.287,29.688,15.606
						C497.432,135.832,489.237,131.2,490.41,129.982z M537.168,139.168c-13.671,5.285-40.633,5.334-53.006,2.845
						c-12.372-2.489-26.627-17.436-31.871-17.874c-5.242-0.438-4.758,7.085-4.758,7.085l5.124,21.579c0,0,1.479,17.214,0.842,20.27
						c-0.392,1.871-1.617,9.744-2.511,15.572c-0.057-0.265-0.088-0.412-0.088-0.412l-0.91,6.983c0,0-6.694,15.35-8.655,18.315
						c-1.963,2.965-3.4,10.217-5.698,13.146c-2.297,2.927-3.367,2.674-7.771,5.94s-28.315,16.639-28.315,16.639
						c0.03,1.595,3.089,3.515,6.911,2.677c3.823-0.839,15.369-4.687,19.088-8.053c3.721-3.367,8.293-3.95,10.941-6.809
						c2.647-2.86,5.988-5.603,9.101-11.931c0.138-0.283,0.284-0.571,0.429-0.858l-0.154,1.126c0.051-0.397,0.107-0.781,0.168-1.155
						c1.963-3.919,4.436-8.437,6.132-11.842c6.623-3.861,16.064,2.743,18.706-0.597c3.809-4.815-3.615-31.487-4.148-34.911
						c-0.258-1.66-1.113-8.003-2.006-14.271c0.302,0.415,0.469,0.636,0.469,0.636l-1.787-9.582c-0.424-2.703-0.771-4.66-0.945-5.073
						l0,0l-0.751-4.023l-0.468-6.713c7.519,8.076,32.659,15.209,32.659,15.209c38.294,6.252,69.684-18.128,69.684-18.128
						l-2.48-5.883C561.096,129.076,550.84,133.884,537.168,139.168z M419.673,130.769c-0.128-2.018,7.222-24.571,7.222-24.571
						s0-10.854-8.529-12.796c-8.529-1.944-13.258,45.101-11.838,51.323c1.421,6.221-4.462,32.827-4.462,32.827
						C416.802,170.792,419.801,132.785,419.673,130.769z M245.635,213.915c5.261,0.477,26.819,7.344,40.216,9.251
						c0,0-10.652-7.702-13.012-8.152c-2.357-0.451-17.508-9.527-19.473-13.612c-1.965-4.086-15.466-25.066-16.621-26.177
						c-1.154-1.112-1.021,21.477-0.599,24.19C236.568,202.127,240.375,213.438,245.635,213.915z M295.56,223.679
						c1.622,0.418,9.821,11.861,12.58,13.829c2.758,1.969,15.299,0.292,19.521-2.269c4.219-2.559,13.591-8.325,19.398-11.257
						c5.806-2.93,28.272-13.371,33.889-17.186c5.619-3.815,7.172-15.554,7.172-15.554s-4.822,2.275-7.954,4.56
						s-14.315,6.039-17.27,7.284c-2.952,1.246-27.22,10.038-29.792,11.362c-2.571,1.328-6.803,2.148-14.071,3.193
						c-7.271,1.042-17.212,4.887-17.212,4.887S293.938,223.264,295.56,223.679z"/>
				</defs>
				<clipPath id="SVGID_2_">
					<use xlink:href="#SVGID_1_"  overflow="visible"/>
				</clipPath>
				
					<path opacity="0.8" clip-path="url(#SVGID_2_)" fill="none" stroke="#333333" stroke-width="1.0018" stroke-miterlimit="10" enable-background="new    " d="
					M125.245,477.229L94.104,205.708 M98.44,203.191l31.14,271.519 M102.779,200.676l31.139,271.519 M107.116,198.16l31.14,271.518
					 M111.453,195.644l31.14,271.52 M146.929,464.646l-31.14-271.521 M120.127,190.609l31.139,271.52 M124.464,188.093l31.14,271.52
					 M128.8,185.577l31.139,271.519 M133.137,183.06l31.14,271.519 M137.475,180.544l31.14,271.518 M141.811,178.026l31.142,271.521
					 M146.149,175.512l31.14,271.519 M150.485,172.995l31.141,271.518 M185.962,441.997l-31.139-271.519 M159.159,167.962
					l31.142,271.519 M194.638,436.964l-31.141-271.52 M167.834,162.929l31.14,271.519 M172.17,160.412l31.141,271.519
					 M176.508,157.895l31.141,271.521 M180.845,155.38l31.141,271.519 M185.181,152.862l31.14,271.52 M189.52,150.346l31.14,271.519
					 M224.996,419.349l-31.14-271.52 M198.193,145.313l31.141,271.519 M202.53,142.797l31.14,271.519 M206.868,140.279
					l31.138,271.52 M211.205,137.763l31.141,271.519 M215.541,135.248l31.14,271.519 M219.878,132.73l31.14,271.52 M224.215,130.215
					l31.14,271.518 M228.553,127.697l31.14,271.519 M232.891,125.181L264.029,396.7 M237.226,122.665l31.141,271.52
					 M241.564,120.147l31.14,271.519 M277.04,389.15l-31.14-271.52 M250.237,115.116l31.142,271.519 M254.574,112.6l31.14,271.518
					 M258.911,110.083l31.14,271.518 M263.249,107.565l31.14,271.519 M267.585,105.049l31.141,271.519 M271.923,102.533
					l31.14,271.519 M276.259,100.016l31.142,271.52 M280.597,97.499l31.14,271.52 M284.935,94.984l31.139,271.519 M289.271,92.467
					l31.14,271.518 M293.608,89.95l31.14,271.518 M297.945,87.434l31.14,271.519 M302.282,84.918l31.141,271.519 M337.76,353.92
					L306.618,82.401 M310.957,79.884l31.14,271.52 M346.433,348.888l-31.141-271.52 M319.631,74.851l31.139,271.52 M355.107,343.854
					l-31.139-271.52 M328.304,69.818l31.139,271.518 M332.641,67.302l31.141,271.518 M336.978,64.785l31.141,271.52
					 M372.457,333.789L341.316,62.268 M345.653,59.753l31.14,271.519 M349.99,57.235l31.139,271.521 M354.326,54.72l31.14,271.518
					 M358.664,52.203l31.14,271.519 M363,49.687l31.14,271.516 M367.338,47.17l31.141,271.519 M371.676,44.652l31.14,271.52
					 M376.012,42.137l31.141,271.518 M380.35,39.621l31.14,271.519 M384.686,37.104l31.141,271.519 M389.023,34.587l31.14,271.519
					 M393.359,32.071l31.143,271.518 M397.697,29.554l31.141,271.518 M402.034,27.038l31.141,271.52 M437.511,296.039
					l-31.14-271.519 M410.709,22.005l31.139,271.519 M446.186,291.008l-31.141-271.52 M419.383,16.972l31.141,271.518
					 M423.72,14.456l31.14,271.519 M428.057,11.938l31.141,271.52 M432.395,9.423l31.141,271.518 M436.73,6.905l31.141,271.521
					 M441.068,4.389l31.141,271.519 M445.404,1.874l31.141,271.519 M449.743-0.644l31.139,271.518 M454.078-3.16l31.141,271.52
					 M458.416-5.677l31.141,271.52 M462.754-8.194l31.14,271.519 M467.09-10.709l31.141,271.518 M471.428-13.226l31.141,271.518
					 M475.765-15.743l31.14,271.519 M480.102-18.26l31.141,271.52 M484.438-20.776l31.141,271.518 M488.774-23.292l31.14,271.518
					 M524.252,245.709L493.111-25.809 M497.449-28.326l31.141,271.52 M501.787-30.841l31.139,271.519 M506.124-33.358l31.14,271.519
					 M541.6,235.645L510.459-35.875 M514.799-38.392l31.137,271.52 M550.274,230.61L519.136-40.909 M523.473-43.423l31.139,271.518
					 M558.949,225.579L527.81-45.941 M532.146-48.458l31.14,271.519 M536.481-50.974l31.142,271.519 M540.82-53.49l31.139,271.518
					 M545.156-56.007l31.141,271.518 M549.494-58.524l31.141,271.52 M584.972,210.48l-31.14-271.52 M558.168-63.556l31.14,271.52
					 M562.506-66.072l31.14,271.518 M597.983,202.929L566.842-68.589 M571.18-71.106l31.14,271.519 M606.657,197.896l-31.14-271.519
					 M579.854-76.139l31.142,271.518"/>
			</g>
		</g>
	</g>
	<g>
		<g>
			<path fill="#333333" d="M220.669,246.154c-1.904-0.966-3.748-2.013-5.619-3.028l-5.512-3.186c-1.846-1.056-3.634-2.19-5.44-3.308
				c-1.802-1.122-3.6-2.256-5.396-3.405c-1.782-1.176-3.535-2.383-5.303-3.647c-0.88-0.618-1.771-1.292-2.666-1.976
				c-0.454-0.354-0.931-0.765-1.396-1.153l-0.088-0.074l-0.045-0.036c-0.036-0.035,0.243,0.237,0.115,0.115l-0.02-0.016
				l-0.154-0.122l-0.078-0.062c-0.006,0.002,0.009,0.021,0.013,0.03c0.013,0.022,0.029,0.045,0.047,0.064
				c0.034,0.028,0.011,0.02-0.013,0.012l-0.059-0.02l-0.153-0.059c-0.47-0.185-1.256-0.397-2.068-0.579
				c-0.818-0.184-1.717-0.321-2.632-0.43c-1.835-0.217-3.762-0.289-5.697-0.313c-1.939-0.012-3.897,0.065-5.853,0.225
				c-1.956,0.144-3.913,0.349-5.859,0.63c-1.945,0.286-3.879,0.643-5.798,1.037c-1.92,0.397-3.821,0.869-5.695,1.408
				c-1.872,0.547-3.731,1.117-5.551,1.778c-1.822,0.654-3.609,1.385-5.352,2.188c-1.75,0.786-3.467,1.63-5.124,2.563
				c-1.659,0.927-3.264,1.934-4.815,3.002l2.765-5.405c0-0.015-0.003-0.073-0.001-0.048l0.001,0.04l0.005,0.098l0.02,0.254
				c0.014,0.182,0.037,0.376,0.063,0.575c0.05,0.397,0.118,0.812,0.195,1.229c0.162,0.834,0.37,1.678,0.619,2.513
				c0.502,1.671,1.204,3.282,2.006,4.827c0.189,0.395,0.422,0.762,0.638,1.142l0.164,0.285l0.259,0.432
				c0.14,0.235,0.265,0.439,0.466,0.803c0.388,0.679,0.669,1.238,0.961,1.829c0.286,0.587,0.549,1.174,0.803,1.758
				c0.497,1.168,0.934,2.333,1.33,3.498c0.386,1.17,0.715,2.337,1.021,3.505c0.602,2.337,1.062,4.679,1.406,7.028
				c0.335,2.353,0.523,4.715,0.61,7.082c0.077,2.368,0.055,4.743-0.159,7.122c-0.092,1.187-0.239,2.377-0.402,3.564
				c-0.095,0.594-0.177,1.187-0.291,1.78l-0.079,0.444l-0.042,0.222l-0.019,0.112l-0.005,0.027c0.006-0.057-0.024,0.167,0.014-0.121
				l-0.009,0.051l-0.133,0.807l-0.065,0.39l-0.035,0.269l-0.079,0.544c-0.023,0.437-0.081,0.868-0.085,1.318
				c-0.011,0.446-0.03,0.896-0.007,1.355c0.001,0.458,0.031,0.92,0.07,1.385c0.157,1.857,0.451,3.772,0.926,5.68
				c0.473,1.909,1.102,3.812,1.864,5.679c0.752,1.874,1.68,3.684,2.641,5.501c0.98,1.804,2.08,3.56,3.29,5.251
				c1.214,1.69,2.534,3.314,3.918,4.91c1.389,1.591,2.909,3.077,4.506,4.502c1.581,1.45,3.285,2.776,5.043,4.076l-0.327,0.632
				c-3.894-2.016-7.553-4.497-10.831-7.422c-3.279-2.919-6.21-6.231-8.698-9.858c-1.248-1.812-2.357-3.716-3.354-5.68
				c-0.991-1.965-1.854-3.998-2.559-6.089c-0.705-2.09-1.24-4.244-1.563-6.436c-0.312-2.194-0.448-4.423-0.202-6.661l0.095-0.811
				l0.107-0.817c0.077-0.532,0.123-1.067,0.183-1.604c0.094-1.073,0.176-2.146,0.206-3.223c0.081-2.153,0.022-4.312-0.13-6.462
				c-0.323-4.298-1.049-8.575-2.238-12.715c-0.595-2.066-1.31-4.099-2.18-6.051c-0.434-0.973-0.922-1.936-1.445-2.838
				c-0.535-0.913-1.159-1.838-1.692-2.817c-1.08-1.944-1.962-3.997-2.63-6.119c-0.649-2.138-1.136-4.283-1.271-6.588l-0.022-0.377
				l0.33-0.225c3.514-2.401,7.264-4.446,11.161-6.132c3.896-1.694,7.936-3.04,12.046-4.077c4.111-1.038,8.299-1.762,12.515-2.185
				c4.218-0.417,8.467-0.541,12.706-0.271c2.118,0.138,4.234,0.375,6.333,0.774c1.048,0.203,2.093,0.441,3.124,0.759
				c1.032,0.316,2.055,0.693,3.03,1.253c0.246,0.143,0.479,0.293,0.72,0.475c0.115,0.094,0.26,0.199,0.344,0.286l0.302,0.285
				c0.375,0.355,0.737,0.718,1.122,1.066c0.779,0.693,1.562,1.384,2.37,2.052c1.599,1.353,3.242,2.661,4.882,3.975
				c6.568,5.243,13.271,10.334,20.002,15.375L220.669,246.154z"/>
		</g>
		<g>
			<path fill="#333333" d="M220.44,267.752c0,0-0.006,0.041-0.016,0.121c-0.015,0.084-0.035,0.212-0.062,0.376
				c-0.058,0.325-0.157,0.806-0.353,1.417c-0.207,0.604-0.468,1.363-0.916,2.207c-0.435,0.85-1.03,1.812-1.919,2.742
				c-0.876,0.932-2.003,1.909-3.457,2.652c-0.724,0.35-1.514,0.725-2.366,0.921c-0.213,0.059-0.428,0.116-0.646,0.176l-0.163,0.044
				l-0.083,0.021c-0.146,0.023,0.153-0.018,0.11-0.009l-0.034,0.008l-0.273,0.083c-0.166,0.055-0.429,0.112-0.425,0.165
				c-0.06,0.057-0.092,0.075-0.174,0.135c-0.728,0.477-1.412,1.341-2.054,2.589c-0.635,1.252-1.246,2.779-1.804,4.515
				c-0.574,1.729-1.155,3.632-1.863,5.715c-0.357,1.047-0.78,2.126-1.299,3.275c-0.529,1.146-1.15,2.365-2.107,3.664
				c-0.227,0.321-0.527,0.659-0.799,0.983c-0.15,0.165-0.319,0.334-0.482,0.496l-0.25,0.243l-0.063,0.061
				c-0.042,0.04,0.12-0.1,0.035-0.023l-0.075,0.074c-0.4,0.392-0.801,0.789-1.207,1.187c-0.404,0.399-0.811,0.799-1.218,1.205
				c-0.422,0.405-0.759,0.797-1.146,1.199l-0.563,0.602c-0.189,0.201-0.472,0.46-0.706,0.688c-0.5,0.462-1.002,0.926-1.505,1.393
				c-0.97,0.801-1.951,1.606-2.938,2.423l-0.372,0.307l-0.093,0.075c0.049-0.033-0.121,0.09-0.118,0.089l-0.045,0.033l-0.18,0.139
				l-0.719,0.558c-0.517,0.387-1.187,0.863-1.727,1.219c-1.124,0.763-2.253,1.459-3.236,2.094c-0.988,0.631-1.796,1.2-2.232,1.627
				c-0.462,0.425-0.576,0.633-0.78,1.066c-0.041,0.129-0.104,0.208-0.146,0.368l-0.072,0.222l-0.129,0.376l-0.158,0.474
				l-0.246,0.671c-0.151,0.391-0.296,0.758-0.449,1.111c-0.597,1.428-1.247,2.684-1.888,3.888c-0.62,1.142-1.242,2.284-1.864,3.429
				c-0.584,1.07-1.141,2.146-1.47,2.903c-0.046,0.1-0.078,0.177-0.107,0.248l-0.068,0.171c-0.024,0.056-0.008,0.03-0.02,0.042
				c0.023-0.075,0.013-0.061,0.051-0.269c0.012-0.09,0.011-0.129,0.03-0.326c0.004-0.081,0.005-0.164,0.005-0.245l-0.015-0.322
				c-0.009-0.142-0.026-0.285-0.05-0.428l-0.042-0.211l-0.069-0.304c-0.057-0.22-0.129-0.435-0.216-0.641l-0.148-0.324
				c-0.062-0.134-0.131-0.269-0.207-0.396c-0.15-0.259-0.326-0.508-0.519-0.731l0.119,0.149l0.185,0.24l0.426,0.573l1.093,1.509
				c0.354,0.479,0.708,0.951,1.067,1.413c0.722,0.923,1.447,1.829,2.183,2.712c0.743,0.88,1.501,1.73,2.276,2.546
				c0.78,0.807,1.57,1.593,2.378,2.325c0.796,0.753,1.613,1.447,2.441,2.104c1.662,1.29,3.366,2.39,5.073,3.257
				c1.715,0.852,3.445,1.405,5.157,1.742c0.858,0.167,1.714,0.238,2.57,0.269c0.427,0.008,0.853-0.025,1.28-0.027
				c0.551-0.04,1.096-0.082,1.638-0.122c4.415-0.354,8.615-0.634,12.514-0.809c1.951-0.072,3.821-0.163,5.612-0.172
				c1.788-0.015,3.491-0.009,5.092,0.013c3.2,0.011,6.017,0.243,8.332,0.521c1.158,0.13,2.191,0.294,3.085,0.495
				c0.445,0.1,0.856,0.191,1.233,0.275c0.375,0.108,0.716,0.208,1.021,0.295c0.604,0.152,1.059,0.385,1.359,0.496
				c0.3,0.127,0.454,0.19,0.454,0.19l-0.185,0.686c0,0-0.153-0.03-0.45-0.091c-0.298-0.049-0.729-0.174-1.322-0.221
				c-1.167-0.175-2.923-0.219-5.152-0.163c-2.233,0.064-4.948,0.279-8.051,0.635c-3.105,0.353-6.601,0.837-10.415,1.381
				c-3.812,0.552-7.938,1.191-12.304,1.871c-0.547,0.085-1.098,0.167-1.652,0.253c-0.571,0.061-1.146,0.146-1.728,0.184
				c-1.165,0.064-2.348,0.062-3.535-0.064c-2.374-0.236-4.748-0.873-7.021-1.821c-4.549-1.932-8.653-5.042-12.28-8.641
				c-1.814-1.811-3.522-3.744-5.124-5.772c-0.802-1.012-1.58-2.055-2.335-3.087l-0.272-0.367l-0.145-0.185
				c-0.021-0.028-0.055-0.068-0.068-0.089c-0.045-0.061-0.089-0.126-0.13-0.193c-0.3-0.549-0.239-1.014-0.194-1.393
				c0.118-0.772,0.382-1.389,0.64-2.011c1.1-2.425,2.456-4.596,3.662-6.843c0.607-1.116,1.194-2.237,1.702-3.373
				c0.129-0.283,0.248-0.571,0.366-0.854c0.109-0.275,0.218-0.561,0.324-0.865l0.348-0.923c0.114-0.313,0.286-0.61,0.426-0.915
				c0.612-1.204,1.506-2.28,2.534-3.112c1.021-0.843,2.122-1.5,3.194-2.136c2.166-1.257,4.214-2.46,6.137-3.905
				c0.959-0.716,1.912-1.425,2.855-2.126c0.886-0.763,1.771-1.464,2.623-2.284c0.847-0.808,1.718-1.551,2.578-2.292
				c0.427-0.371,0.854-0.74,1.277-1.106c0.229-0.2,0.391-0.353,0.587-0.535c0.173-0.195,0.361-0.372,0.522-0.58
				c1.328-1.626,2.237-3.575,3.084-5.444c0.838-1.888,1.588-3.756,2.397-5.523c0.808-1.767,1.664-3.451,2.732-4.923
				c1.068-1.455,2.412-2.722,4.02-3.312c0.407-0.135,0.852-0.27,1.207-0.308c0.374-0.061,0.741-0.119,1.101-0.177
				c0.174-0.028,0.347-0.054,0.518-0.081c0.17-0.029,0.331-0.089,0.496-0.131c0.322-0.102,0.653-0.162,0.952-0.288
				c1.231-0.434,2.245-1.1,3.088-1.773c1.683-1.385,2.59-2.905,3.143-3.926c0.266-0.523,0.449-0.935,0.554-1.215
				c0.058-0.143,0.09-0.242,0.117-0.312c0.024-0.073,0.037-0.109,0.037-0.109L220.44,267.752z"/>
		</g>
		<g>
			<path fill="#333333" d="M206.177,310.915c0,0-0.103-0.239-0.249-0.694c-0.139-0.457-0.354-1.131-0.53-2.009
				c-0.183-0.877-0.379-1.954-0.478-3.208c-0.113-1.249-0.169-2.678-0.067-4.235c0.047-0.778,0.114-1.591,0.22-2.431
				c0.109-0.84,0.276-1.7,0.475-2.581c0.396-1.761,0.944-3.609,1.752-5.426c0.387-0.916,0.838-1.823,1.321-2.728
				c0.253-0.445,0.49-0.908,0.763-1.349c0.285-0.434,0.573-0.868,0.86-1.307c1.198-1.718,2.568-3.353,4.054-4.865
				c0.753-0.745,1.556-1.434,2.357-2.116c0.403-0.338,0.824-0.648,1.233-0.973c0.393-0.303,0.786-0.604,1.177-0.903
				c0.774-0.601,1.562-1.171,2.346-1.728c0.765-0.563,1.478-1.126,2.204-1.677c0.734-0.535,1.406-1.128,2.11-1.659
				c0.349-0.27,0.692-0.537,1.033-0.799c0.329-0.276,0.655-0.547,0.974-0.813c0.646-0.534,1.263-1.065,1.85-1.583
				c0.595-0.513,1.181-1.004,1.697-1.508c0.536-0.493,1.036-0.979,1.497-1.45c0.237-0.233,0.468-0.461,0.692-0.681
				c0.21-0.23,0.415-0.455,0.614-0.67c0.794-0.875,1.432-1.674,1.928-2.364c0.464-0.699,0.812-1.274,0.988-1.689
				c0.083-0.206,0.157-0.372,0.185-0.477c0.03-0.107,0.046-0.162,0.046-0.162l0.266-0.01c0,0,0.002,0.077-0.012,0.2
				c-0.008,0.128-0.046,0.309-0.096,0.542c-0.109,0.466-0.343,1.125-0.718,1.923c-0.396,0.782-0.917,1.719-1.626,2.715
				c-0.175,0.248-0.356,0.506-0.542,0.771c-0.2,0.254-0.406,0.517-0.617,0.786c-0.411,0.548-0.889,1.085-1.384,1.648
				c-0.483,0.575-1.03,1.131-1.589,1.715c-0.549,0.593-1.153,1.17-1.772,1.764c-0.31,0.297-0.622,0.601-0.94,0.903
				c-0.328,0.294-0.66,0.591-0.994,0.893c-0.672,0.597-1.35,1.222-2.076,1.812c-0.721,0.597-1.443,1.219-2.193,1.821
				c-0.755,0.594-1.519,1.192-2.291,1.799c-0.779,0.612-1.538,1.215-2.298,1.846c-0.739,0.651-1.481,1.306-2.172,2.015
				c-1.403,1.391-2.704,2.886-3.839,4.466c-1.128,1.584-2.104,3.239-2.908,4.908c-1.616,3.341-2.523,6.721-2.955,9.655
				c-0.436,2.938-0.443,5.43-0.338,7.159c0.104,1.73,0.302,2.698,0.302,2.698L206.177,310.915z"/>
		</g>
		<g>
			<path fill="#333333" d="M240.419,292.066c0,0-0.042-0.128-0.119-0.37c-0.065-0.242-0.188-0.595-0.292-1.046
				c-0.113-0.45-0.262-0.995-0.382-1.618c-0.135-0.626-0.287-1.327-0.403-2.094c-0.133-0.766-0.275-1.593-0.386-2.469
				c-0.113-0.875-0.221-1.795-0.308-2.746c-0.053-0.476-0.086-0.96-0.123-1.448c-0.044-0.488-0.078-0.983-0.103-1.481
				c-0.07-0.996-0.1-2.008-0.146-3.017c-0.022-1.01-0.057-2.02-0.061-3.011c-0.015-0.989-0.007-1.967,0-2.906
				c0.016-0.941,0.03-1.852,0.046-2.715c0.025-0.861,0.05-1.677,0.071-2.428c0.01-0.751,0.018-1.438,0.024-2.049
				c-0.018-0.603-0.014-1.136-0.054-1.567c-0.01-0.228-0.049-0.401-0.064-0.576c-0.016-0.174-0.042-0.316-0.076-0.424
				c-0.059-0.237-0.09-0.361-0.09-0.361l0.203-0.174c0,0,0.078,0.108,0.223,0.315c0.079,0.101,0.154,0.231,0.23,0.393
				c0.077,0.161,0.186,0.34,0.259,0.556c0.348,0.843,0.696,2.094,0.955,3.617c0.526,3.044,0.833,7.142,0.995,11.24
				c0.12,4.1,0.095,8.198,0.043,11.271c-0.022,1.535-0.083,2.816-0.114,3.711c-0.041,0.896-0.063,1.406-0.063,1.406L240.419,292.066
				z"/>
		</g>
		<g>
			<path fill="none" d="M162.133,216.421"/>
		</g>
		<g>
			<path fill="none" d="M209.879,271.927"/>
		</g>
		<g>
			<path fill="#333333" d="M243.17,346.021c0,0,0.103,0.011,0.3,0.03c0.196,0.017,0.488,0.043,0.867,0.073
				c0.75,0.08,1.874,0.104,3.223,0.128c1.35,0.002,2.987-0.128,4.598-0.498c0.784-0.233,1.597-0.447,2.236-0.86l0.249-0.136
				l0.218-0.163l0.215-0.156l0.107-0.075l0.054-0.036c0.056-0.028-0.443,0.222-0.221,0.106l0.021-0.016l0.043-0.034
				c0.227-0.182,0.457-0.366,0.69-0.551l0.171-0.137l0.037-0.096l0.073-0.173c0.055-0.136,0.337-0.572,0.54-0.88
				c0.103-0.183,0.196-0.395,0.297-0.586c0.102-0.191,0.204-0.38,0.282-0.616c0.085-0.223,0.172-0.442,0.269-0.655
				c0.093-0.217,0.158-0.476,0.24-0.709c0.175-0.461,0.289-0.988,0.415-1.507c0.507-2.089,0.719-4.489,0.676-7.011
				c-0.032-0.637-0.072-1.274-0.086-1.915c-0.054-0.647-0.109-1.3-0.164-1.956c-0.094-0.656-0.19-1.32-0.285-1.985
				c-0.095-0.668-0.233-1.339-0.344-2.012c-0.101-0.673-0.302-1.348-0.444-2.023c-0.17-0.76-0.341-1.522-0.51-2.285
				c-0.363-1.796-0.654-3.438-0.906-5.094c-0.444-3.311-0.791-6.551-0.993-9.738c-0.053-0.794-0.105-1.583-0.16-2.372
				c-0.035-0.784-0.068-1.565-0.103-2.342c-0.066-1.549-0.133-3.077-0.147-4.579c-0.075-3.001-0.067-5.895-0.049-8.631
				c0.03-2.735,0.09-5.315,0.149-7.694c0.062-2.375,0.117-4.552,0.167-6.48c0.027-1.923,0.075-3.606,0.031-4.986
				c-0.067-1.367-0.105-2.462-0.22-3.194c-0.119-0.739-0.182-1.135-0.182-1.135l0.614-0.357c0,0,0.048,0.091,0.144,0.268
				c0.088,0.179,0.249,0.435,0.403,0.786c0.322,0.698,0.73,1.742,1.133,3.1c0.789,2.716,1.618,6.656,2.257,11.422
				c0.656,4.764,1.237,10.331,1.839,16.295c0.613,5.959,1.217,12.322,2.144,18.617c0.223,1.572,0.473,3.145,0.76,4.683
				c0.161,0.786,0.316,1.547,0.461,2.343c0.136,0.791,0.325,1.568,0.414,2.363c0.48,3.151,0.629,6.312,0.396,9.353
				c-0.224,3.04-0.837,5.965-1.895,8.581c-0.271,0.653-0.532,1.297-0.875,1.896c-0.165,0.302-0.306,0.614-0.49,0.898
				c-0.186,0.287-0.369,0.568-0.552,0.851c-0.171,0.287-0.383,0.547-0.594,0.801c-0.211,0.256-0.407,0.518-0.625,0.759
				c-0.476,0.454-0.889,0.931-1.443,1.307l-0.391,0.293c-0.129,0.104-0.258,0.189-0.388,0.252c-0.257,0.142-0.51,0.281-0.761,0.421
				l-0.047,0.024l-0.023,0.014c0.025-0.012-0.06,0.032-0.061,0.03l-0.106,0.041l-0.212,0.079l-0.418,0.159
				c-0.139,0.051-0.277,0.106-0.416,0.151l-0.422,0.1c-1.114,0.306-2.199,0.338-3.202,0.358c-2.011-0.045-3.716-0.403-5.087-0.765
				c-1.372-0.368-2.417-0.757-3.123-1.036c-0.702-0.28-1.075-0.461-1.075-0.461L243.17,346.021z"/>
		</g>
		<g>
			<path fill="#333333" d="M196.038,263.319c0,0-0.12,0.137-0.346,0.395c-0.232,0.246-0.558,0.629-1.002,1.074
				c-0.435,0.451-1.041,0.965-1.739,1.543c-0.71,0.562-1.524,1.17-2.48,1.741c-0.483,0.284-0.985,0.579-1.506,0.884
				c-0.539,0.269-1.111,0.518-1.696,0.791c-0.588,0.261-1.212,0.479-1.846,0.732c-0.315,0.134-0.645,0.225-0.979,0.315
				c-0.334,0.094-0.671,0.188-1.011,0.283c-0.682,0.187-1.388,0.315-2.1,0.479c-0.714,0.141-1.444,0.237-2.183,0.328
				c-1.478,0.144-2.989,0.197-4.489,0.135c-1.503-0.056-2.993-0.24-4.441-0.497c-1.447-0.252-2.841-0.644-4.167-1.048
				c-1.337-0.377-2.569-0.918-3.731-1.414c-1.157-0.509-2.216-1.062-3.163-1.623c-0.958-0.531-1.792-1.102-2.516-1.619
				c-0.73-0.504-1.329-1.007-1.817-1.418c-0.492-0.407-0.846-0.77-1.092-1.007c-0.243-0.242-0.365-0.384-0.365-0.384l0.147-0.224
				c0,0,0.586,0.384,1.669,0.972c1.081,0.585,2.658,1.368,4.607,2.176c0.97,0.414,2.044,0.804,3.186,1.201
				c1.149,0.37,2.365,0.754,3.646,1.056c1.277,0.322,2.614,0.579,3.98,0.787c0.685,0.086,1.373,0.196,2.071,0.244l1.045,0.095
				l1.05,0.044c1.4,0.075,2.803,0.032,4.181-0.046c0.685-0.07,1.368-0.128,2.039-0.216c0.666-0.114,1.331-0.193,1.973-0.332
				c0.64-0.148,1.279-0.259,1.886-0.436c0.606-0.18,1.209-0.329,1.78-0.521c0.568-0.201,1.122-0.396,1.655-0.584
				c0.523-0.224,1.027-0.438,1.511-0.643c0.491-0.193,0.927-0.451,1.36-0.655c0.425-0.221,0.849-0.396,1.211-0.621
				c0.734-0.437,1.395-0.78,1.907-1.128c1.027-0.686,1.615-1.078,1.615-1.078L196.038,263.319z"/>
		</g>
		<g>
			<path fill="#333333" d="M192.718,266.098c0,0-0.128,0.129-0.369,0.371c-0.248,0.229-0.597,0.59-1.069,1.005
				c-0.467,0.42-1.029,0.941-1.701,1.491c-0.648,0.579-1.458,1.159-2.345,1.781c-0.887,0.618-1.839,1.349-2.913,1.954
				c-1.064,0.63-2.18,1.317-3.379,1.939c-1.217,0.584-2.456,1.239-3.755,1.812c-1.312,0.548-2.659,1.069-4.013,1.572
				c-1.381,0.43-2.742,0.916-4.125,1.257c-1.375,0.367-2.746,0.663-4.081,0.909c-0.667,0.116-1.314,0.274-1.967,0.344
				c-0.649,0.076-1.283,0.152-1.902,0.225c-1.231,0.161-2.414,0.195-3.499,0.235c-0.544,0.006-1.063,0.027-1.559,0.017
				c-0.494-0.002-0.969-0.039-1.41-0.058c-0.88-0.021-1.654-0.134-2.283-0.198c-1.264-0.173-1.976-0.365-1.976-0.365l0-0.268
				c0,0,0.699-0.011,1.924-0.104c0.612-0.061,1.355-0.115,2.205-0.23c0.851-0.097,1.805-0.252,2.848-0.405
				c1.039-0.18,2.165-0.365,3.346-0.62c0.589-0.127,1.197-0.256,1.817-0.391c0.619-0.136,1.245-0.31,1.884-0.466
				c1.283-0.305,2.584-0.704,3.913-1.091c1.329-0.385,2.648-0.87,3.985-1.305c1.322-0.475,2.637-0.975,3.934-1.453
				c1.276-0.535,2.532-1.062,3.748-1.572c1.194-0.56,2.346-1.104,3.44-1.616c1.099-0.503,2.086-1.076,3.025-1.556
				c0.928-0.5,1.8-0.916,2.535-1.364c0.744-0.429,1.393-0.803,1.927-1.11c1.068-0.616,1.678-0.97,1.678-0.97L192.718,266.098z"/>
		</g>
		<g>
			<path fill="#333333" d="M497.353,136.086c-0.892-0.14-1.779-0.264-2.665-0.45c-0.883-0.204-1.799-0.371-2.678-0.613
				c-1.759-0.479-3.507-1.038-5.227-1.679c-1.735-0.618-3.4-1.394-5.064-2.179c-0.819-0.413-1.655-0.809-2.467-1.241l-2.428-1.322
				c-1.566-0.958-3.14-1.917-4.657-2.955l-1.149-0.765l-1.121-0.798c-0.742-0.538-1.509-1.057-2.236-1.613
				c-1.47-1.098-2.896-2.258-4.29-3.439c-1.421-1.163-2.771-2.394-4.146-3.602c-0.685-0.607-1.339-1.24-2.013-1.859
				c-0.662-0.628-1.357-1.23-1.991-1.883l-1.931-1.938l-1.858-1.841c-0.312-0.298-0.651-0.662-0.933-0.897l-0.875-0.786
				c-0.558-0.535-1.221-1.034-1.82-1.554c-1.256-0.961-2.52-1.894-3.815-2.592c-1.28-0.722-2.569-1.294-3.806-1.619
				c-1.235-0.327-2.4-0.413-3.461-0.284c-0.535,0.061-1.045,0.202-1.551,0.368c-0.502,0.188-0.99,0.432-1.465,0.729
				c-0.477,0.299-0.937,0.659-1.357,1.065c-0.207,0.206-0.418,0.411-0.602,0.625c-0.098,0.104-0.182,0.211-0.262,0.309l-0.105,0.136
				l-0.038,0.053c0-0.003-0.035,0.05,0.021-0.037l0.303-0.559c-0.668,1.456-1.35,3.019-1.998,4.545l-1.922,4.621
				c-0.63,1.542-1.23,3.09-1.817,4.64L425.076,119l-0.811,2.317c-0.512,1.543-1.001,3.089-1.395,4.605l-0.3,1.134
				c-0.101,0.376-0.165,0.737-0.249,1.108l-0.121,0.552l-0.059,0.268l-0.057,0.315l-0.219,1.245
				c-0.287,1.651-0.559,3.358-0.891,5.047c-0.321,1.696-0.649,3.395-1.004,5.097c-0.351,1.7-0.713,3.401-1.109,5.098
				c-0.194,0.848-0.4,1.696-0.611,2.542c-0.229,0.843-0.453,1.687-0.698,2.528c-0.474,1.682-0.991,3.357-1.536,5.024
				c-0.555,1.664-1.119,3.329-1.787,4.958c-0.679,1.629-1.371,3.247-2.162,4.833c-0.78,1.584-1.607,3.151-2.586,4.636
				c-0.961,1.49-1.986,2.942-3.168,4.271c-1.191,1.312-2.467,2.553-3.915,3.542l-0.358-0.394c1.23-1.153,2.305-2.465,3.266-3.853
				c0.969-1.387,1.799-2.868,2.55-4.386c0.763-1.514,1.421-3.081,2.026-4.667c0.617-1.582,1.139-3.201,1.645-4.822
				c1.986-6.509,3.279-13.214,4.314-19.951c0.518-3.372,0.949-6.752,1.398-10.142c0.113-0.848,0.226-1.693,0.385-2.547
				c0.078-0.426,0.139-0.855,0.23-1.276l0.281-1.261c0.383-1.68,0.855-3.332,1.348-4.976l0.782-2.452l0.831-2.432
				c0.576-1.614,1.168-3.221,1.787-4.818c1.24-3.193,2.545-6.352,3.948-9.485l0.015-0.037l0.018-0.025
				c1.086-1.575,2.447-2.827,4.029-3.817c0.791-0.486,1.631-0.896,2.508-1.211c0.885-0.295,1.793-0.519,2.719-0.617
				c1.852-0.215,3.726,0.024,5.488,0.533c1.766,0.512,3.426,1.306,4.986,2.233c1.57,0.922,2.996,2.044,4.392,3.186
				c1.353,1.18,2.692,2.428,3.906,3.733c1.228,1.294,2.437,2.622,3.644,3.92c1.22,1.295,2.467,2.569,3.713,3.835
				c1.277,1.24,2.527,2.508,3.844,3.702c1.291,1.226,2.631,2.394,3.97,3.562c0.669,0.589,1.368,1.137,2.049,1.709l1.028,0.848
				l1.055,0.813c1.395,1.105,2.841,2.134,4.287,3.165l2.211,1.485c0.742,0.488,1.506,0.94,2.259,1.412
				c1.522,0.912,3.073,1.782,4.661,2.573c1.583,0.8,3.204,1.526,4.854,2.185c0.819,0.345,1.661,0.612,2.49,0.922
				c0.838,0.291,1.699,0.538,2.549,0.808L497.353,136.086z"/>
		</g>
		<g>
			<path fill="#333333" d="M442.781,94.993c0,0-0.039-0.181-0.111-0.528c-0.066-0.347-0.175-0.862-0.271-1.539
				c-0.18-1.35-0.486-3.347-0.537-5.921c-0.06-2.571-0.053-5.746,0.654-9.411c0.348-1.835,0.846-3.8,1.65-5.864
				c0.807-2.054,1.976-4.201,3.729-6.224c0.42-0.516,0.918-0.99,1.424-1.469c0.246-0.246,0.537-0.453,0.808-0.682
				c0.267-0.213,0.592-0.477,0.786-0.622c0.879-0.677,1.773-1.365,2.686-2.067c1.811-1.393,3.688-2.813,5.57-4.305
				c3.769-2.954,7.674-6.118,11.215-9.524c1.749-1.708,3.403-3.486,4.639-5.226c0.316-0.435,0.533-0.853,0.818-1.27
				c0.111-0.202,0.187-0.392,0.285-0.585l0.475-0.928l0.482-0.925l0.119-0.23c0.037-0.074,0.077-0.15,0.153-0.27l0.401-0.645
				l0.827-1.278c0.272-0.394,0.519-0.7,0.781-1.053c2.087-2.727,4.369-5.01,6.813-7.043c2.441-2.04,4.979-3.855,7.752-5.514
				c1.41-0.823,2.806-1.587,4.629-2.339c0.394-0.18,1.026-0.39,1.594-0.569l0.217-0.067c0.355-0.08-0.642,0.127,0.824-0.185
				l0.066-0.009l0.264-0.036l0.065-0.009l0.187-0.019c0.18-0.016,0.361-0.026,0.543-0.035c0.364-0.015,0.73-0.011,1.093,0.011
				l0.271,0.019c0.107,0.009,0.154,0.015,0.189,0.021l0.256,0.038l0.511,0.082c0.368,0.058,0.618,0.124,0.888,0.189
				c0.26,0.067,0.564,0.136,0.781,0.206L507,19.381c1.785,0.573,3.205,1.21,4.61,1.873c1.396,0.657,2.722,1.336,4.024,2.022
				c1.301,0.688,2.568,1.382,3.814,2.097c1.24,0.72,2.457,1.448,3.664,2.178c2.406,1.462,4.749,2.936,7.016,4.471
				c1.136,0.763,2.26,1.527,3.382,2.317c0.566,0.404,1.12,0.787,1.718,1.243l0.474,0.364l0.12,0.094
				c-0.026-0.021,0.467,0.36,0.278,0.218l0.046,0.041l0.178,0.164l0.305,0.285l0.404,0.402l0.199,0.204
				c0.068,0.075,0.088,0.104,0.135,0.157l0.236,0.287c0.621,0.76,1.074,1.439,1.482,2.102c0.415,0.665,0.763,1.305,1.104,1.94
				c0.672,1.267,1.24,2.505,1.742,3.742c1.003,2.469,1.846,4.877,2.477,7.294c0.626,2.415,1.126,4.798,1.323,7.258
				c0.094,1.233,0.125,2.479,0.002,3.809c-0.07,0.669-0.167,1.349-0.362,2.079l-0.155,0.547l-0.021,0.067
				c-0.014,0.055,0.049-0.208,0.016-0.077l-0.029,0.088l-0.062,0.177c-0.078,0.234-0.159,0.467-0.238,0.698
				c-0.508,1.507-0.867,3.278-1.176,4.93c-0.551,3.33-1.002,6.328-1.318,8.796c-0.294,2.472-0.594,4.43-0.744,5.764
				c-0.176,1.336-0.27,2.049-0.27,2.049l-0.709,0.033c0,0-0.031-0.713-0.092-2.048c-0.052-1.336-0.118-3.294-0.15-5.789
				c-0.027-2.494-0.032-5.526,0.154-9.009c0.114-1.74,0.246-3.596,0.619-5.566c0.1-0.471,0.201-0.947,0.307-1.431
				c0.091-0.45,0.127-0.927,0.143-1.413c0.022-0.975-0.08-1.991-0.246-3.02c-0.334-2.062-0.925-4.187-1.67-6.336
				c-0.742-2.152-1.652-4.332-2.711-6.507c-0.531-1.086-1.104-2.169-1.736-3.231c-0.634-1.051-1.312-2.113-2.115-3.022
				c-0.213-0.241-0.377-0.409-0.609-0.614l-0.189-0.152c-0.02-0.017-0.087-0.072-0.068-0.056l-0.096-0.067l-0.39-0.271
				c-0.526-0.36-1.072-0.711-1.62-1.063c-1.098-0.702-2.22-1.396-3.355-2.085c-4.553-2.752-9.332-5.491-14.307-8.009
				c-2.487-1.232-5.033-2.477-7.647-3.324c-0.646-0.206-1.327-0.374-1.905-0.433c-0.465-0.099-1.119,0.167-1.744,0.424
				c-1.255,0.524-2.493,1.198-3.693,1.916c-2.411,1.427-4.729,3.042-6.887,4.821c-2.155,1.778-4.176,3.713-5.871,5.859
				c-0.208,0.27-0.432,0.534-0.625,0.807l-0.557,0.827c-0.389,0.521-0.697,1.176-1.037,1.773l-0.506,0.909
				c-0.178,0.313-0.343,0.635-0.531,0.937c-0.41,0.579-0.791,1.184-1.227,1.735c-1.729,2.218-3.693,4.155-5.717,5.926
				c-4.052,3.546-8.275,6.555-12.325,9.314c-2.029,1.374-4.018,2.688-5.953,3.937c-0.966,0.623-1.918,1.237-2.851,1.837
				c-0.905,0.599-1.738,1.217-2.459,1.961c-1.476,1.441-2.572,3.135-3.445,4.823c-0.873,1.692-1.514,3.399-2.013,5.035
				c-0.991,3.28-1.44,6.263-1.714,8.716c-0.268,2.458-0.328,4.405-0.35,5.729c-0.016,1.327,0.017,2.025,0.017,2.025L442.781,94.993z
				"/>
		</g>
		<g>
			<path fill="#333333" d="M532.314,53.067c0.041,0.912,0.086,1.824,0.104,2.734c0.045,0.905,0.168,1.778,0.251,2.65l0.065,0.65
				l0.108,0.66l0.192,1.314c0.069,0.436,0.115,0.871,0.201,1.306l0.269,1.298c0.31,1.729,0.825,3.431,1.234,5.128l0.722,2.531
				c0.256,0.839,0.543,1.673,0.814,2.505c0.26,0.834,0.579,1.659,0.883,2.482c0.299,0.825,0.611,1.643,0.928,2.463l0.944,2.454
				l1.012,2.432c0.328,0.812,0.711,1.607,1.062,2.412c0.354,0.802,0.718,1.602,1.104,2.395c0.747,1.591,1.538,3.165,2.297,4.747
				c0.794,1.573,1.574,3.146,2.416,4.697c0.812,1.561,1.65,3.11,2.49,4.658c0.858,1.541,1.73,3.071,2.605,4.602
				c0.871,1.531,1.757,3.057,2.668,4.565c0.9,1.516,1.836,3.013,2.749,4.521c0.922,1.502,1.857,2.996,2.811,4.475
				c0.948,1.485,1.931,2.945,2.883,4.417l1.459,2.179c0.481,0.705,0.999,1.464,1.448,2.091l3.66,5.104l-5.223,3.585
				c-2.149,1.476-4.301,2.955-6.49,4.38l-3.382,2.012l-1.692,1.001c-0.562,0.336-1.126,0.674-1.719,0.967
				c-1.166,0.614-2.344,1.206-3.519,1.802l-1.765,0.891c-0.596,0.285-1.211,0.538-1.814,0.804l-3.643,1.587
				c-0.602,0.277-1.228,0.506-1.854,0.731l-1.878,0.671l-1.88,0.666c-0.623,0.226-1.252,0.444-1.899,0.615l-3.851,1.102
				c-0.639,0.188-1.279,0.37-1.939,0.5l-1.964,0.421l-1.966,0.407c-0.328,0.065-0.652,0.141-0.982,0.197l-0.998,0.143l-3.98,0.57
				c-1.332,0.157-2.678,0.229-4.016,0.326c-0.67,0.036-1.336,0.108-2.01,0.114l-2.014,0.013c-1.344-0.007-2.683,0.052-4.025-0.061
				c-1.34-0.078-2.678-0.154-4.01-0.284l-3.982-0.518c-1.32-0.208-2.633-0.478-3.94-0.738l-0.979-0.203l-0.969-0.254l-1.932-0.505
				c-1.295-0.309-2.551-0.748-3.815-1.151c-0.626-0.22-1.262-0.409-1.876-0.656l-1.846-0.736c-0.612-0.251-1.229-0.48-1.832-0.747
				l-1.797-0.822c-0.598-0.28-1.201-0.539-1.787-0.835l-1.748-0.904c-2.34-1.179-4.566-2.564-6.717-4.025
				c-1.083-0.717-2.117-1.51-3.17-2.258c-1.016-0.807-2.055-1.568-3.036-2.409c-1.968-1.67-3.82-3.466-5.599-5.305
				c-0.892-0.919-1.72-1.899-2.536-2.883c-0.821-0.98-1.593-1.99-2.309-3.065l0.534-0.469c1.678,1.795,3.547,3.462,5.457,5.038
				c1.928,1.564,3.91,3.069,5.981,4.438c1.019,0.709,2.09,1.34,3.133,2.012c1.081,0.613,2.134,1.27,3.231,1.847
				c1.102,0.571,2.181,1.186,3.312,1.697c1.118,0.536,2.23,1.087,3.379,1.552l1.711,0.73c0.572,0.237,1.16,0.438,1.738,0.658
				l1.743,0.649c0.584,0.209,1.181,0.38,1.769,0.572l1.773,0.56c0.59,0.189,1.197,0.319,1.795,0.483
				c1.201,0.304,2.393,0.648,3.613,0.862l1.822,0.365l0.91,0.182l0.92,0.132c1.229,0.165,2.449,0.367,3.682,0.499l3.703,0.3
				c1.236,0.064,2.477,0.06,3.715,0.092c1.238,0.06,2.475-0.049,3.711-0.089l1.855-0.08c0.619-0.026,1.232-0.121,1.85-0.178
				c1.229-0.142,2.466-0.24,3.689-0.419l3.664-0.627l0.915-0.158c0.304-0.061,0.604-0.143,0.904-0.21l1.81-0.429
				c1.2-0.305,2.424-0.528,3.599-0.927l3.556-1.085c0.598-0.168,1.179-0.385,1.758-0.606l1.741-0.652l1.743-0.651
				c0.583-0.213,1.162-0.43,1.725-0.696l3.399-1.511c0.565-0.256,1.138-0.495,1.696-0.766l1.654-0.855l3.311-1.702
				c0.56-0.27,1.094-0.585,1.631-0.9l1.607-0.939l3.219-1.876l6.234-4.086l-0.168,0.935c-2.038-3.015-3.948-6.075-5.816-9.176
				c-1.859-3.1-3.655-6.241-5.383-9.418c-0.867-1.586-1.709-3.187-2.536-4.795c-0.833-1.606-1.631-3.229-2.431-4.852
				c-0.775-1.633-1.56-3.265-2.294-4.917c-0.758-1.643-1.459-3.313-2.167-4.978c-0.688-1.674-1.37-3.35-2-5.048
				c-0.331-0.842-0.639-1.694-0.936-2.55s-0.621-1.702-0.893-2.566l-0.84-2.584l-0.768-2.608c-0.268-0.865-0.477-1.749-0.701-2.627
				c-0.22-0.878-0.455-1.753-0.635-2.645c-0.186-0.886-0.389-1.771-0.561-2.661l-0.463-2.683c-0.153-0.894-0.24-1.799-0.361-2.699
				c-0.133-0.898-0.191-1.805-0.259-2.711l-0.103-1.358c-0.033-0.454-0.024-0.909-0.038-1.363l-0.026-1.364l-0.011-0.681
				l0.029-0.685c0.05-0.91,0.061-1.832,0.146-2.733l0.312-2.688L532.314,53.067z"/>
		</g>
		<g>
			<path fill="#333333" d="M468.949,119.612c0,0,0.189,0.019,0.542,0.059c0.349,0.049,0.87,0.091,1.515,0.188
				c0.648,0.089,1.439,0.177,2.33,0.318c0.896,0.124,1.904,0.261,2.989,0.438c0.546,0.08,1.113,0.163,1.701,0.247
				c0.583,0.094,1.186,0.19,1.807,0.29c1.241,0.19,2.548,0.362,3.888,0.588c1.341,0.221,2.734,0.372,4.136,0.581
				c1.404,0.189,2.827,0.375,4.249,0.535c1.42,0.163,2.841,0.299,4.234,0.411c1.395,0.091,2.766,0.236,4.088,0.243
				c0.668,0.033,1.313,0.003,1.951,0.025c0.643,0.028,1.258-0.002,1.866-0.014c0.612,0.004,1.188-0.08,1.763-0.094
				c0.578-0.008,1.116-0.086,1.646-0.131c0.538-0.034,1.029-0.142,1.512-0.201c0.246-0.031,0.48-0.061,0.711-0.09
				c0.226-0.045,0.446-0.091,0.658-0.133c0.861-0.159,1.604-0.348,2.226-0.509c0.622-0.158,1.097-0.334,1.435-0.434
				c0.341-0.102,0.523-0.155,0.523-0.155l0.04-0.011c0.069-0.021,0.142,0.018,0.161,0.087c0.018,0.058-0.008,0.118-0.056,0.148
				c0,0-0.161,0.096-0.459,0.274c-0.306,0.167-0.725,0.471-1.313,0.749c-0.584,0.286-1.29,0.646-2.145,0.953
				c-0.211,0.082-0.431,0.167-0.655,0.256c-0.229,0.072-0.466,0.146-0.708,0.221c-0.486,0.15-0.996,0.315-1.541,0.431
				c-1.082,0.269-2.272,0.492-3.537,0.657c-0.635,0.075-1.284,0.167-1.953,0.205c-0.669,0.054-1.352,0.105-2.047,0.117
				c-0.348,0.012-0.697,0.023-1.052,0.036c-0.353-0.002-0.709-0.002-1.067-0.003c-0.715,0.007-1.438-0.027-2.168-0.055
				c-1.459-0.059-2.938-0.187-4.412-0.337c-5.893-0.697-11.668-2.074-15.927-3.312c-2.135-0.611-3.886-1.206-5.109-1.632
				c-1.222-0.428-1.914-0.697-1.914-0.697c-0.068-0.026-0.101-0.103-0.073-0.17c0.021-0.057,0.077-0.089,0.135-0.083
				L468.949,119.612z"/>
		</g>
		<g>
			<path fill="#333333" d="M458.555,108.288c0,0,0.211-0.121,0.603-0.349c0.399-0.211,0.978-0.551,1.731-0.925
				c0.756-0.372,1.666-0.853,2.74-1.323c1.068-0.48,2.27-1.044,3.625-1.552c0.674-0.266,1.375-0.542,2.102-0.829
				c0.736-0.265,1.509-0.508,2.299-0.775c0.396-0.13,0.799-0.262,1.204-0.396c0.417-0.12,0.838-0.239,1.266-0.361
				c0.425-0.125,0.858-0.243,1.298-0.351c0.435-0.117,0.88-0.228,1.355-0.304c0.904-0.164,1.826-0.332,2.757-0.5l0.681-0.114
				l0.344-0.058c0.11-0.02,0.191-0.049,0.289-0.071c0.384-0.095,0.744-0.147,1.155-0.266c1.634-0.422,3.279-1.053,4.884-1.821
				c1.625-0.724,3.219-1.582,4.751-2.509c1.522-0.941,3.057-1.853,4.476-2.849c1.414-1.001,2.807-1.954,4.094-2.914
				c1.281-0.967,2.508-1.878,3.625-2.742c1.118-0.873,2.142-1.675,3.049-2.386c0.91-0.721,1.703-1.35,2.357-1.868
				c0.645-0.53,1.178-0.926,1.523-1.212c0.354-0.279,0.544-0.429,0.544-0.429l0.02-0.016c0.056-0.045,0.14-0.036,0.187,0.021
				c0.038,0.049,0.037,0.119-0.004,0.167c0,0-0.608,0.734-1.73,1.968c-1.126,1.229-2.746,2.974-4.824,4.94
				c-2.069,1.973-4.576,4.179-7.423,6.35c-2.853,2.153-6.058,4.27-9.532,5.896c-1.736,0.802-3.551,1.458-5.391,1.901
				c-0.926,0.216-1.859,0.384-2.768,0.476c-0.905,0.123-1.8,0.246-2.68,0.365c-0.441,0.05-0.873,0.138-1.299,0.232
				c-0.428,0.09-0.85,0.18-1.268,0.268c-0.419,0.088-0.834,0.175-1.242,0.261c-0.404,0.102-0.807,0.204-1.201,0.303
				c-0.791,0.202-1.56,0.399-2.303,0.587c-0.738,0.209-1.453,0.414-2.137,0.608c-1.373,0.382-2.619,0.776-3.729,1.105
				c-1.11,0.332-2.068,0.651-2.861,0.899c-1.578,0.523-2.479,0.823-2.479,0.823c-0.069,0.023-0.145-0.015-0.167-0.084
				c-0.02-0.06,0.006-0.125,0.059-0.156L458.555,108.288z"/>
		</g>
		<g>
			<path fill="#333333" d="M511.064,38.968c0,0-0.07,0.158-0.198,0.455c-0.139,0.289-0.319,0.729-0.585,1.26
				c-0.264,0.535-0.562,1.193-0.949,1.917c-0.367,0.735-0.781,1.563-1.262,2.44c-0.23,0.443-0.472,0.904-0.721,1.382
				c-0.258,0.469-0.522,0.955-0.796,1.455c-0.276,0.497-0.548,1.011-0.819,1.538c-0.135,0.266-0.277,0.528-0.433,0.788
				c-0.144,0.263-0.289,0.53-0.436,0.798c-0.599,1.066-1.144,2.203-1.72,3.315l-0.426,0.843c-0.128,0.286-0.262,0.565-0.398,0.846
				c-0.285,0.563-0.511,1.128-0.744,1.689l-0.184,0.417l-0.145,0.41l-0.295,0.818l-0.193,0.557l-0.288,0.669
				c-0.185,0.371-0.371,0.721-0.567,1.048c-0.774,1.316-1.688,2.368-2.561,3.367c-0.867,1.004-1.805,1.859-2.696,2.652
				c-0.88,0.802-1.778,1.487-2.62,2.096c-0.83,0.623-1.643,1.13-2.375,1.56c-0.725,0.441-1.402,0.765-1.967,1.016
				c-0.564,0.256-1.05,0.392-1.384,0.47c-0.177,0.03-0.304,0.049-0.405,0.044c-0.094-0.002-0.142-0.002-0.142-0.002h-0.021
				c-0.072,0-0.131-0.061-0.131-0.134c0.003-0.067,0.053-0.122,0.118-0.13c0,0,0.138-0.017,0.413-0.144
				c0.271-0.13,0.656-0.367,1.126-0.707c0.939-0.676,2.2-1.771,3.641-3.153c1.435-1.387,3.054-3.076,4.599-5.033
				c0.77-0.977,1.523-2.025,2.154-3.156c0.158-0.282,0.3-0.572,0.438-0.864l0.18-0.437l0.154-0.465l0.326-0.96
				c0.102-0.324,0.221-0.641,0.359-0.948c0.263-0.622,0.528-1.242,0.84-1.836l0.447-0.897c0.162-0.292,0.321-0.583,0.48-0.872
				c0.313-0.583,0.646-1.148,0.979-1.701c0.327-0.562,0.667-1.103,1.005-1.632c0.332-0.535,0.67-1.051,1.008-1.553
				c0.332-0.506,0.662-0.996,0.992-1.468c0.65-0.951,1.286-1.833,1.877-2.645c1.18-1.625,2.225-2.934,2.955-3.851
				c0.738-0.908,1.163-1.427,1.163-1.427c0.044-0.056,0.126-0.065,0.183-0.019c0.047,0.038,0.061,0.101,0.038,0.153L511.064,38.968z
				"/>
		</g>
		<g>
			<path fill="#333333" d="M501.998,63.461c0,0,0.001,0.081-0.01,0.219c-0.012,0.134-0.018,0.346-0.074,0.588
				c-0.05,0.244-0.098,0.561-0.205,0.876c-0.099,0.322-0.213,0.688-0.368,1.062c-0.15,0.381-0.351,0.759-0.572,1.156
				c-0.231,0.389-0.473,0.804-0.769,1.19c-0.298,0.384-0.615,0.775-0.965,1.142c-0.178,0.184-0.346,0.379-0.535,0.554l-0.584,0.504
				c-0.408,0.318-0.812,0.639-1.236,0.922c-0.204,0.148-0.417,0.286-0.645,0.4c-0.223,0.12-0.441,0.239-0.666,0.341
				c-0.441,0.216-0.881,0.399-1.305,0.559c-0.217,0.073-0.417,0.157-0.627,0.214c-0.215,0.047-0.418,0.102-0.621,0.138
				c-0.4,0.083-0.784,0.123-1.12,0.158c-0.33,0.048-0.64,0.045-0.886,0.052c-0.244,0.013-0.455-0.014-0.588-0.016
				c-0.136-0.01-0.214-0.023-0.214-0.023l-0.08-0.014c-0.067-0.011-0.11-0.073-0.101-0.139c0.006-0.034,0.026-0.063,0.054-0.081
				c0,0,0.205-0.134,0.562-0.367c0.36-0.229,0.864-0.575,1.486-0.956c0.155-0.096,0.316-0.197,0.484-0.302
				c0.159-0.117,0.324-0.235,0.492-0.358c0.338-0.248,0.695-0.509,1.062-0.78c0.366-0.274,0.76-0.535,1.119-0.854
				c0.366-0.309,0.739-0.622,1.113-0.934l0.568-0.458c0.181-0.162,0.361-0.322,0.539-0.482c0.355-0.32,0.708-0.633,1.051-0.938
				c0.335-0.308,0.643-0.627,0.943-0.918c0.297-0.295,0.586-0.566,0.83-0.838c0.498-0.533,0.936-0.962,1.211-1.285
				c0.288-0.312,0.445-0.503,0.445-0.503c0.042-0.049,0.113-0.056,0.164-0.016c0.027,0.022,0.043,0.055,0.043,0.087L501.998,63.461z
				"/>
		</g>
		<g>
			<path fill="#333333" d="M243.084,245.485c0,0-0.102-0.278-0.298-0.82c-0.194-0.539-0.493-1.336-0.85-2.388
				c-0.704-2.104-1.799-5.175-2.978-9.155c-0.593-1.992-1.24-4.199-1.879-6.651c-0.318-1.231-0.634-2.514-0.882-3.917
				c-0.062-0.355-0.124-0.712-0.186-1.073c-0.045-0.393-0.088-0.789-0.133-1.187c-0.045-0.354-0.061-0.712-0.101-1.042
				c-0.036-0.336-0.072-0.676-0.109-1.019c-0.333-2.846-0.686-5.875-1.058-9.068c-0.375-3.207-0.688-6.588-1.035-10.122
				c-0.337-3.535-0.667-7.225-0.961-11.066c-0.273-3.854-0.457-7.82-0.457-12.089c0-1.068,0.032-2.172,0.103-3.34
				c0.01-0.279,0.051-0.608,0.076-0.912c0.03-0.31,0.053-0.608,0.113-0.976l0.081-0.528l0.042-0.264l0.074-0.33l0.17-0.673
				l0.044-0.167c0.016-0.056,0.026-0.102,0.066-0.208c0.067-0.183,0.139-0.364,0.217-0.543c0.076-0.18,0.159-0.358,0.244-0.533
				l0.133-0.261c-0.277,0.495-0.054,0.086-0.104,0.174l0.163-0.355l0.164-0.355l0.042-0.087l-0.001-0.03l0.002-0.06
				c0.006-0.08,0.018-0.146,0.044-0.223l0.146-0.585l0.076-0.294l0.072-0.338l0.146-0.676c0.097-0.494,0.195-0.989,0.292-1.485
				c0.393-2.068,0.841-4.374,1.625-6.809c0.782-2.426,1.891-5.064,3.806-7.558l0.352-0.466c0.125-0.152,0.266-0.3,0.401-0.449
				l0.827-0.884c0.269-0.3,0.583-0.567,0.901-0.829l0.962-0.787l0.244-0.193c0.092-0.068-0.319,0.227-0.108,0.072l0.08-0.066
				l0.326-0.264l0.652-0.524c0.103-0.083,0.232-0.18,0.314-0.254l0.219-0.213l0.439-0.42l0.451-0.42l0.54-0.544l1.084-1.097
				c0.726-0.786,1.458-1.535,2.187-2.365c0.731-0.808,1.462-1.626,2.192-2.474c0.733-0.833,1.465-1.691,2.197-2.55
				c1.482-1.729,2.971-3.47,4.466-5.217c1.506-1.766,3.019-3.547,4.589-5.349c1.562-1.807,3.168-3.594,5.074-5.483l0.735-0.715
				l0.19-0.18l0.231-0.202l0.467-0.4l0.469-0.397l0.236-0.197c0.087-0.067-0.026,0.012,0.224-0.176l0.088-0.064l0.709-0.523
				l2.838-2.088c0.48-0.349,0.929-0.696,1.438-1.046l1.561-1.054l3.129-2.1c8.306-5.303,17.097-9.707,26.015-13.254l1.666-0.676
				L310.059,94c1.118-0.411,2.235-0.821,3.347-1.231c2.24-0.775,4.482-1.488,6.708-2.207c2.24-0.649,4.454-1.352,6.673-1.943
				c2.22-0.587,4.423-1.188,6.621-1.684c8.769-2.135,17.325-3.577,25.413-4.785c0.507-0.077,1.008-0.151,1.512-0.228l0.752-0.112
				l0.094-0.014c0.246-0.042,0.122-0.017,0.199-0.03l0.188-0.021l0.385-0.043l0.951-0.088l0.809-0.054
				c0.538-0.036,1.048-0.053,1.568-0.079c2.059-0.081,4.048-0.111,6.008-0.062c3.915,0.071,7.678,0.284,11.283,0.591
				c3.603,0.321,7.053,0.7,10.313,1.263c3.259,0.559,6.335,1.21,9.199,1.952c2.86,0.761,5.519,1.576,7.913,2.526
				c2.396,0.948,4.538,1.983,6.41,3.022c3.759,2.098,6.258,4.484,7.721,6.227c0.357,0.45,0.682,0.834,0.935,1.187
				c0.231,0.369,0.426,0.68,0.581,0.931c0.309,0.496,0.467,0.753,0.467,0.753l-0.585,0.402c0,0-0.18-0.227-0.522-0.667
				c-0.172-0.22-0.385-0.494-0.639-0.817c-0.275-0.308-0.618-0.641-0.993-1.032c-1.53-1.522-4.094-3.491-7.797-5.206
				c-1.858-0.839-3.969-1.656-6.326-2.373c-2.362-0.702-4.956-1.339-7.759-1.873c-5.609-1.043-12.039-1.702-19.072-1.945
				c-3.515-0.116-7.182-0.133-10.973-0.003c-1.895,0.062-3.822,0.154-5.771,0.306c-0.964,0.08-1.967,0.164-2.909,0.287
				c-0.959,0.136-1.958,0.358-2.947,0.537c-7.939,1.494-16.272,3.274-24.777,5.552c-8.505,2.275-17.183,5.053-25.703,8.61
				c-8.521,3.544-16.917,7.793-24.789,12.873l-2.917,1.941l-1.458,0.97c-0.484,0.328-0.953,0.686-1.431,1.029l-2.851,2.074
				l-0.711,0.518c-0.21,0.156-0.427,0.356-0.639,0.532c-0.434,0.348-0.845,0.754-1.259,1.156c-1.645,1.617-3.22,3.34-4.768,5.078
				c-1.551,1.735-3.079,3.487-4.604,5.23c-3.051,3.487-6.077,6.956-9.203,10.277c-1.568,1.663-3.144,3.276-4.858,4.804
				c-0.438,0.37-0.86,0.787-1.307,1.113c-0.446,0.343-0.893,0.686-1.336,1.027c-0.845,0.627-1.619,1.347-2.272,2.174
				c-1.321,1.644-2.234,3.591-2.927,5.593c-0.697,2.008-1.179,4.081-1.662,6.15c-0.245,1.036-0.485,2.072-0.796,3.103l-0.237,0.773
				l-0.303,0.792c-0.096,0.276-0.219,0.5-0.337,0.731l-0.177,0.348l-0.06,0.118l-0.029,0.069l-0.057,0.137
				c-0.162,0.371-0.267,0.877-0.348,1.357c-0.088,0.485-0.141,0.989-0.195,1.486c-0.096,1.004-0.163,2.01-0.201,3.013
				c-0.161,4.017-0.102,7.948-0.025,11.746c0.087,3.8,0.218,7.471,0.365,10.996c0.322,7.053,0.616,13.52,0.875,19.25
				c0.021,0.719,0.042,1.427,0.063,2.125c0.015,0.335,0.032,0.669,0.047,1c0.036,0.334,0.071,0.666,0.105,0.994
				c0.148,1.316,0.355,2.588,0.56,3.805c0.423,2.437,0.876,4.669,1.295,6.682c0.854,4.023,1.587,7.172,2.093,9.317
				c0.517,2.144,0.793,3.286,0.793,3.286L243.084,245.485z"/>
		</g>
		<g>
			<path fill="#333333" d="M381.189,291.496c0,0-0.478,0.216-1.38,0.589c-0.907,0.355-2.217,0.94-3.921,1.565
				c-1.713,0.608-3.785,1.435-6.212,2.167c-1.212,0.379-2.497,0.81-3.867,1.214c-1.37,0.398-2.821,0.789-4.34,1.194
				c-1.528,0.369-3.124,0.742-4.782,1.115c-0.832,0.175-1.686,0.326-2.549,0.492c-0.867,0.157-1.741,0.349-2.641,0.476
				c-0.896,0.145-1.809,0.271-2.733,0.402c-0.924,0.144-1.863,0.248-2.817,0.345c-0.953,0.104-1.919,0.199-2.893,0.287
				c-0.977,0.072-1.967,0.113-2.966,0.17c-3.991,0.223-8.149,0.152-12.353-0.18c-2.097-0.212-4.224-0.357-6.324-0.727
				c-1.052-0.169-2.114-0.304-3.165-0.501l-3.144-0.616c-0.524-0.112-1.049-0.214-1.567-0.334l-1.55-0.389
				c-1.033-0.259-2.064-0.521-3.093-0.778c-1.025-0.269-2.031-0.591-3.038-0.897c-0.982-0.304-1.961-0.607-2.935-0.907l-1.43-0.444
				l-1.322-0.39c-0.906-0.26-1.824-0.525-2.746-0.763c-1.843-0.48-3.693-0.915-5.542-1.356c-3.699-0.859-7.384-1.688-10.917-2.718
				c-3.525-1.017-6.9-2.286-9.845-3.883c-2.95-1.581-5.409-3.535-7.272-5.487c-1.891-1.943-3.152-3.918-4.08-5.547
				c-0.907-1.651-1.437-3.016-1.785-3.939c-0.333-0.933-0.491-1.431-0.491-1.431l-0.01-0.034c-0.045-0.141,0.032-0.29,0.173-0.334
				c0.122-0.039,0.25,0.016,0.312,0.123c0,0,0.248,0.444,0.714,1.28c0.469,0.832,1.216,2.02,2.268,3.455
				c1.084,1.408,2.513,3.044,4.412,4.628c0.478,0.389,0.986,0.774,1.515,1.162c0.544,0.364,1.089,0.766,1.691,1.107
				c1.176,0.733,2.48,1.395,3.873,2.004c2.794,1.217,5.985,2.149,9.418,2.896c3.432,0.76,7.104,1.36,10.897,2.061
				c3.79,0.702,7.719,1.506,11.616,2.667c1.954,0.553,3.894,1.116,5.864,1.652c0.991,0.24,1.984,0.479,2.978,0.721l1.489,0.358
				c0.5,0.11,1.003,0.202,1.503,0.306l3.006,0.614c1.001,0.199,2.013,0.336,3.017,0.506c2.005,0.36,4.024,0.56,6.024,0.803
				c0.997,0.138,2.001,0.165,2.994,0.255c0.996,0.062,1.983,0.175,2.97,0.195c1.973,0.055,3.921,0.164,5.84,0.113
				c0.958-0.013,1.91-0.009,2.853-0.03c0.941-0.045,1.874-0.088,2.795-0.131c1.847-0.054,3.645-0.262,5.401-0.39
				c1.752-0.154,3.451-0.385,5.096-0.563c1.641-0.236,3.227-0.464,4.748-0.683c3.031-0.507,5.811-0.979,8.266-1.466
				c2.459-0.448,4.582-0.938,6.343-1.292c3.508-0.783,5.513-1.23,5.513-1.23c0.142-0.034,0.284,0.057,0.314,0.198
				c0.03,0.125-0.035,0.249-0.147,0.3L381.189,291.496z"/>
		</g>
		<g>
			<path fill="#333333" d="M461.043,138.052c0,0,0.321,1.273,0.922,3.662c0.568,2.394,1.467,5.895,2.477,10.369
				c1.026,4.474,2.305,9.899,3.631,16.145c0.678,3.121,1.4,6.442,2.159,9.944c0.758,3.5,1.478,7.192,2.272,11.041l0.146,0.722
				l0.075,0.364l0.08,0.457c0.085,0.489,0.173,0.98,0.26,1.474c0.088,0.493,0.178,0.988,0.266,1.487l0.134,0.748
				c0.042,0.257,0.071,0.54,0.107,0.808c0.135,1.092,0.27,2.196,0.407,3.309c0.111,1.105,0.168,2.205,0.255,3.327
				c0.249,4.475,0.057,9.156-0.596,13.928c-0.657,4.77-1.822,9.623-3.495,14.399c-0.444,1.183-0.859,2.39-1.342,3.571
				c-0.519,1.16-1.001,2.354-1.562,3.509c-1.104,2.32-2.298,4.618-3.598,6.866c-2.595,4.502-5.554,8.839-8.738,13.017l-1.198,1.57
				l-1.23,1.538c-0.816,1.036-1.658,2.046-2.502,3.055c-1.706,2.01-3.462,3.973-5.236,5.918
				c-7.088,7.795-14.682,15.089-21.926,22.474l-1.363,1.377l-0.684,0.689l-0.369,0.366l-0.18,0.165l-0.359,0.336l-0.09,0.081
				l-0.156,0.133l-0.325,0.272l-0.664,0.533l-0.169,0.129l-0.135,0.1l-0.268,0.188l-0.537,0.376c-0.705,0.468-1.4,0.902-2.074,1.277
				c-1.358,0.775-2.673,1.428-3.975,2.025c-1.305,0.606-2.59,1.146-3.868,1.667c-5.102,2.071-10.136,3.668-15.038,5.284
				c-2.452,0.796-4.862,1.596-7.201,2.382c-1.162,0.389-2.304,0.784-3.381,1.188l-0.793,0.302l-0.74,0.302l-0.672,0.294
				l-0.276,0.137l-0.137,0.065l-0.069,0.032c-0.445,0.235-0.185,0.094-0.311,0.158l-0.43,0.206l-0.213,0.104l-0.348,0.15
				l-0.703,0.295l-0.35,0.14l-0.276,0.097c-0.366,0.126-0.745,0.264-1.098,0.374l-1.053,0.321c-1.372,0.39-2.703,0.721-4.004,1.003
				c-2.607,0.574-5.138,1.009-7.648,1.398c-5.016,0.755-9.911,1.356-14.768,1.646c-2.43,0.157-4.835,0.271-7.276,0.301
				c-1.216,0.019-2.452,0.005-3.728-0.045l-0.978-0.053l-1.035-0.088c-0.391-0.049-0.745-0.088-1.174-0.159l-0.706-0.14
				l-0.176-0.037c-0.052-0.013-0.166-0.046-0.245-0.067c-0.177-0.052-0.353-0.107-0.525-0.166l-0.376-0.133l-0.198-0.07
				c-0.052-0.02-0.011,0-0.016-0.001l0.017,0.01c0.022,0.013,0.057,0.015,0.072,0.009l-0.269-0.051
				c-0.16-0.038-0.398-0.067-0.612-0.099c-0.21-0.036-0.46-0.058-0.696-0.086c-0.963-0.101-1.991-0.173-3.032-0.221
				c-2.078-0.103-4.19-0.125-6.269-0.182c-4.167-0.083-8.233-0.076-12.146-0.056c-1.965,0.012-3.889,0.024-5.771,0.038
				c-0.963,0.003-1.849,0.013-2.918-0.01l-0.21-0.005l-0.322-0.015c-0.233-0.026,0.296,0.044-0.563-0.062l-0.083-0.022l-0.166-0.046
				c-0.215-0.059-0.521-0.158-0.77-0.253l-0.194-0.074c-0.064-0.027-0.139-0.057-0.155-0.067l-0.185-0.09
				c-0.512-0.245-0.925-0.474-1.354-0.708c-1.66-0.929-3.166-1.857-4.631-2.778c-1.46-0.924-2.86-1.834-4.203-2.735
				c-5.388-3.572-9.859-7.011-13.424-10.005c-3.572-2.982-6.132-5.667-7.652-7.716c-0.748-1.041-1.228-1.918-1.449-2.578
				c-0.068-0.155-0.112-0.3-0.134-0.436c-0.029-0.129-0.051-0.238-0.07-0.327c-0.035-0.173-0.053-0.261-0.053-0.261
				c-0.04-0.19,0.084-0.377,0.276-0.417c0.179-0.036,0.353,0.069,0.407,0.24l0.016,0.046c0,0,0.022,0.07,0.066,0.21
				c0.021,0.069,0.047,0.155,0.079,0.259c0.023,0.104,0.071,0.222,0.147,0.354c0.23,0.542,0.75,1.298,1.523,2.212
				c1.583,1.812,4.305,4.159,8,6.826c3.697,2.667,8.357,5.687,13.854,8.888c2.75,1.591,5.707,3.262,8.892,4.816
				c0.399,0.188,0.801,0.378,1.204,0.544c0.412,0.159,0.63,0.306,1.103,0.259c0.893-0.018,1.827-0.072,2.761-0.12
				c1.873-0.103,3.791-0.206,5.75-0.314c3.92-0.21,8.006-0.413,12.243-0.534c2.119-0.057,4.274-0.102,6.472-0.073
				c1.097,0.008,2.207,0.044,3.33,0.116c0.562,0.038,1.126,0.085,1.7,0.166l0.433,0.062l0.467,0.1
				c0.329,0.065,0.548,0.166,0.836,0.243c0.424,0.141,0.994,0.19,1.525,0.244c0.548,0.035,1.101,0.058,1.663,0.064
				c1.123,0.007,2.259-0.014,3.404-0.07c2.289-0.104,4.608-0.293,6.948-0.523c4.683-0.47,9.454-1.109,14.266-1.948
				c2.404-0.426,4.821-0.895,7.223-1.479c2.387-0.599,4.832-1.208,6.982-2.312c2.262-1.222,4.697-2.083,7.094-2.966
				c2.41-0.861,4.843-1.684,7.281-2.512c4.871-1.657,9.781-3.321,14.578-5.28c2.389-0.991,4.764-2.037,6.984-3.315
				c1.099-0.635,2.189-1.338,3.088-2.128c0.225-0.217,0.504-0.463,0.688-0.656l0.687-0.7l1.375-1.404
				c7.368-7.442,14.931-14.669,21.948-22.176c7.016-7.494,13.502-15.297,18.543-23.649c2.519-4.167,4.67-8.464,6.357-12.831
				c1.691-4.366,2.913-8.802,3.666-13.194c0.759-4.392,1.05-8.736,1.002-12.931c-0.033-1.049-0.041-2.092-0.095-3.12
				c-0.08-1.027-0.161-2.042-0.237-3.049c-0.028-0.502-0.091-1.005-0.16-1.506c-0.065-0.502-0.129-1-0.191-1.497
				c-0.065-0.497-0.129-0.991-0.191-1.483c-0.056-0.464-0.146-0.969-0.217-1.448c-4.704-31.031-7.844-51.719-7.844-51.719
				c-0.029-0.194,0.105-0.375,0.297-0.404c0.182-0.027,0.354,0.088,0.397,0.263L461.043,138.052z"/>
		</g>
		<g>
			<path fill="#333333" d="M237.027,175.202c0,0,0.203,0.218,0.555,0.64c0.341,0.426,0.886,1.031,1.484,1.842
				c0.61,0.808,1.36,1.792,2.153,2.949c0.407,0.571,0.808,1.184,1.249,1.826c0.425,0.642,0.872,1.318,1.338,2.023
				c0.902,1.387,1.879,2.89,2.913,4.48c1.037,1.544,2.104,3.161,3.257,4.735c0.557,0.814,1.173,1.565,1.772,2.35l0.452,0.585
				l0.228,0.294l0.015,0.019c-0.031-0.042,0.09,0.121-0.066-0.089l0.034,0.039l0.067,0.077l0.136,0.154
				c0.349,0.422,0.701,0.845,1.055,1.27c0.35,0.414,0.713,0.878,1.055,1.253c0.339,0.343,0.661,0.699,0.983,1.056
				c0.332,0.354,0.62,0.724,0.985,1.069l1.072,1.046c0.675,0.747,1.451,1.353,2.172,2.026c0.755,0.628,1.503,1.257,2.272,1.855
				c1.578,1.149,3.162,2.268,4.85,3.27c0.805,0.536,1.705,0.976,2.514,1.493c0.849,0.495,1.694,0.948,2.516,1.436
				c1.664,0.945,3.261,1.88,4.727,2.795c0.729,0.475,1.435,0.902,2.088,1.356c0.652,0.464,1.277,0.882,1.848,1.306
				c1.148,0.84,2.098,1.664,2.882,2.313c0.778,0.667,1.344,1.264,1.744,1.634c0.394,0.387,0.594,0.606,0.594,0.606l-0.257,0.467
				c0,0-0.997-0.506-2.743-1.391c-0.887-0.412-1.958-0.924-3.205-1.477c-1.25-0.542-2.666-1.143-4.218-1.782
				c-1.56-0.634-3.248-1.321-5.033-2.046c-0.893-0.376-1.807-0.763-2.744-1.156c-0.922-0.434-1.887-0.824-2.826-1.318
				c-0.475-0.237-0.953-0.477-1.433-0.719c-0.474-0.256-0.943-0.532-1.42-0.798c-0.968-0.514-1.874-1.158-2.817-1.758
				c-0.468-0.305-0.904-0.663-1.359-0.994c-0.442-0.346-0.921-0.653-1.338-1.037c-0.844-0.752-1.749-1.447-2.532-2.273l-1.198-1.209
				c-0.403-0.398-0.753-0.85-1.131-1.273c-0.372-0.427-0.741-0.856-1.111-1.282c-0.358-0.432-0.68-0.881-1.019-1.316
				c-0.335-0.438-0.669-0.876-1.001-1.31c-0.357-0.45-0.625-0.916-0.94-1.367c-0.602-0.913-1.23-1.792-1.736-2.725
				c-1.096-1.817-2.02-3.642-2.882-5.378c-0.408-0.877-0.807-1.73-1.192-2.556c-0.364-0.833-0.715-1.639-1.053-2.412
				c-0.682-1.544-1.24-2.983-1.757-4.25c-0.509-1.268-0.952-2.372-1.317-3.283c-0.746-1.817-1.171-2.854-1.171-2.854
				L237.027,175.202z"/>
		</g>
		<g>
			<path fill="#333333" d="M248.079,262.69c0,0,0.268-0.379,0.805-1.058c0.548-0.671,1.34-1.673,2.512-2.812
				c1.181-1.126,2.637-2.52,4.813-3.606c1.083-0.524,2.399-1.012,4.003-0.899c0.793,0.045,1.636,0.324,2.36,0.782
				c0.192,0.105,0.363,0.232,0.526,0.369l0.251,0.201c0.034,0.026,0.103,0.086,0.108,0.087l0.095,0.082l0.384,0.332l0.367,0.298
				c1.006,0.812,2.15,1.617,3.347,2.401c1.203,0.785,2.463,1.577,3.792,2.331c2.654,1.503,5.57,2.934,8.586,4.004
				c0.753,0.26,1.515,0.49,2.26,0.651c0.742,0.164,1.482,0.268,2.109,0.261c0.165,0.008,0.295-0.018,0.438-0.025
				c0.075-0.001,0.128-0.018,0.186-0.03l0.271-0.051l0.655-0.122c0.222-0.042,0.422-0.089,0.696-0.116
				c0.503-0.054,1.062-0.131,1.525-0.155c0.471-0.028,0.949-0.067,1.418-0.087c3.747-0.146,7.441-0.027,11.14,0.169l2.765,0.201
				c0.901,0.078,1.8,0.157,2.698,0.234c1.82,0.127,3.628,0.244,5.413,0.344c1.789,0.093,3.561,0.229,5.312,0.347
				c1.752,0.102,3.484,0.201,5.187,0.3c3.418,0.224,6.671,0.312,9.784,0.442c0.39,0.015,0.774,0.03,1.158,0.044
				c0.393,0.015,0.787,0.026,1.175,0.039c0.763,0.02,1.515,0.033,2.255,0.067c1.471,0.043,2.946,0.175,4.329,0.255
				c1.385,0.101,2.695,0.207,3.949,0.325c1.247,0.13,2.431,0.253,3.543,0.368c2.216,0.239,4.148,0.447,5.738,0.621
				c0.797,0.09,1.502,0.139,2.117,0.196c0.616,0.052,1.148,0.12,1.566,0.109c0.851,0.01,1.305,0.015,1.305,0.015l0.043,0.263
				c0,0-0.461,0.04-1.322,0.111c-0.433,0.054-0.961,0.034-1.584,0.044c-0.623,0.005-1.34,0.014-2.139-0.016
				c-3.205-0.053-7.771-0.316-13.25-0.438c-1.369-0.006-2.792-0.066-4.271-0.029c-1.481,0.022-3.003,0.043-4.578,0.033
				c-3.146-0.012-6.469,0.047-9.894-0.114c-1.715-0.06-3.457-0.114-5.222-0.175c-1.762-0.084-3.546-0.169-5.345-0.255
				c-1.8-0.083-3.611-0.184-5.429-0.293c-1.826-0.152-3.639-0.281-5.464-0.386c-3.645-0.22-7.298-0.375-10.882-0.267
				c-0.895,0.04-1.785,0.091-2.654,0.188c-0.436,0.042-0.877,0.137-1.314,0.202c-0.439,0.077-0.915,0.127-1.363,0.108
				c-1.818-0.065-3.523-0.587-5.138-1.183c-3.232-1.222-6.159-2.833-8.838-4.488c-2.67-1.673-5.097-3.415-7.156-5.258
				c-0.525-0.457-0.969-0.966-1.488-1.312c-0.518-0.358-1.108-0.58-1.707-0.649c-1.202-0.156-2.365,0.166-3.372,0.586
				c-2.027,0.867-3.566,2.089-4.79,3.094c-1.22,1.027-2.104,1.917-2.699,2.529c-0.592,0.615-0.887,0.96-0.887,0.96L248.079,262.69z"
				/>
		</g>
		<g>
			<path fill="#333333" d="M210.677,258.601c0,0,0.057-0.187,0.181-0.521c0.129-0.334,0.3-0.833,0.565-1.44
				c0.26-0.613,0.569-1.361,0.981-2.186c0.397-0.833,0.857-1.769,1.417-2.756c0.28-0.495,0.569-1.012,0.871-1.547
				c0.308-0.531,0.657-1.062,1.008-1.611c0.71-1.1,1.475-2.261,2.396-3.391c0.45-0.571,0.934-1.146,1.445-1.725
				c0.521-0.58,1.064-1.153,1.732-1.704c0.154-0.14,0.337-0.278,0.516-0.415c0.173-0.14,0.36-0.276,0.573-0.412
				c0.202-0.134,0.405-0.271,0.665-0.396l0.373-0.188c0.141-0.061,0.303-0.117,0.456-0.173c0.274-0.113,0.703-0.196,1.107-0.244
				l0.076-0.009l0.039-0.004l0.076-0.004l0.069-0.002l0.139-0.006l0.278-0.01l0.279-0.011l0.332,0.002
				c0.22,0.002,0.451-0.002,0.661,0.009c1.648,0.079,3.22,0.308,4.689,0.602c0.733,0.132,1.443,0.294,2.085,0.43
				c0.324,0.07,0.616,0.117,0.851,0.152l0.121,0.015c0.014,0.003,0.052,0.009,0.044,0.009c-0.009,0-0.019,0.004-0.028,0.008
				c-0.007,0.003-0.016,0.011-0.024,0.019l0.077-0.015l0.017-0.003l0.032-0.003l0.065-0.008c0.109-0.014,0.314-0.038,0.419-0.042
				c0.875-0.041,1.611-0.018,2.361,0.083c0.741,0.094,1.457,0.226,2.147,0.393c0.69,0.171,1.357,0.355,1.986,0.614
				c0.627,0.259,1.22,0.555,1.769,0.877c0.547,0.325,1.055,0.682,1.494,1.074c0.432,0.403,0.814,0.812,1.123,1.237
				c0.637,0.835,0.96,1.698,1.125,2.394c0.173,0.697,0.174,1.253,0.173,1.618c-0.015,0.371-0.034,0.562-0.034,0.562l-0.263,0.034
				c0,0-0.034-0.18-0.097-0.517c-0.069-0.333-0.198-0.82-0.454-1.402c-0.254-0.581-0.666-1.246-1.293-1.869
				c-0.619-0.625-1.454-1.196-2.449-1.647c-0.997-0.447-2.15-0.776-3.397-0.967c-1.243-0.186-2.591-0.268-3.945-0.142
				c-0.172,0.014-0.299,0.047-0.512,0.071c-0.203,0.034-0.382,0.019-0.571,0.019c-0.364-0.02-0.726-0.061-1.084-0.112
				c-0.716-0.101-1.431-0.225-2.152-0.34c-1.44-0.232-2.905-0.43-4.373-0.481c-0.367-0.007-0.721-0.027-1.096-0.013
				c-0.181,0.006-0.386,0.002-0.543,0.02c-0.158,0.026-0.317,0.04-0.478,0.109c-0.644,0.225-1.244,0.649-1.802,1.092
				c-1.117,0.904-2.103,1.95-3.026,2.983c-1.839,2.079-3.405,4.155-4.718,5.949c-2.63,3.592-4.249,6.083-4.249,6.083
				L210.677,258.601z"/>
		</g>
	</g>
	<g>
		<path fill="#231F20" d="M261.182,333.887c0,0-0.105-0.211-0.305-0.609c-0.186-0.403-0.484-0.986-0.812-1.743
			c-0.333-0.753-0.753-1.668-1.178-2.731c-0.441-1.058-0.936-2.254-1.42-3.573c-0.504-1.312-1.042-2.74-1.552-4.265
			c-0.526-1.52-1.092-3.122-1.593-4.801c-0.26-0.837-0.524-1.688-0.792-2.549c-0.132-0.431-0.265-0.865-0.4-1.301
			c-0.123-0.439-0.244-0.881-0.367-1.324c-0.485-1.775-0.978-3.579-1.47-5.381c-0.434-1.819-0.867-3.639-1.293-5.43
			c-0.437-1.789-0.749-3.58-1.104-5.299c-0.359-1.72-0.615-3.403-0.869-4.999c-0.269-1.591-0.454-3.11-0.609-4.519
			c-0.176-1.404-0.274-2.701-0.344-3.856c-0.087-1.152-0.097-2.167-0.092-3.005c-0.012-0.833,0.061-1.499,0.099-1.948
			c0.069-0.447,0.106-0.688,0.106-0.688l0.265,0.006c0,0,0.01,0.229,0.03,0.658c0.036,0.43,0.099,1.065,0.229,1.868
			c0.119,0.805,0.295,1.777,0.519,2.891c0.218,1.112,0.489,2.366,0.783,3.732c1.189,5.464,2.985,12.706,4.858,19.926
			c1.831,7.232,3.731,14.447,5.177,19.853c1.436,5.408,2.392,9.017,2.392,9.017L261.182,333.887z"/>
	</g>
</g>
</svg>
